<?xml version="1.0" standalone="no"?>
<!DOCTYPE svg PUBLIC "-//W3C//DTD SVG 20010904//EN"
 "http://www.w3.org/TR/2001/REC-SVG-20010904/DTD/svg10.dtd">
<svg version="1.0" xmlns="http://www.w3.org/2000/svg"
 width="326.000000pt" height="326.000000pt" viewBox="0 0 326.000000 326.000000"
 preserveAspectRatio="xMidYMid meet">
<metadata>
Created by potrace 1.14, written by Peter Selinger 2001-2017
</metadata>
<g transform="translate(0.000000,326.000000) scale(0.100000,-0.100000)"
fill="#000000" stroke="none">
<path d="M20 3240 c-20 -20 -20 -33 -20 -1610 0 -1577 0 -1590 20 -1610 20
-20 33 -20 1610 -20 1577 0 1590 0 1610 20 20 20 20 33 20 1610 0 1577 0 1590
-20 1610 -20 20 -33 20 -1610 20 -1577 0 -1590 0 -1610 -20z m3208 -12 c17
-17 17 -3179 0 -3196 -17 -17 -3179 -17 -3196 0 -17 17 -17 3179 0 3196 17 17
3179 17 3196 0z"/>
<path d="M1527 2874 c-72 -50 -106 -81 -103 -90 3 -8 13 -56 23 -107 23 -125
23 -352 -1 -472 -24 -126 -96 -402 -110 -420 -14 -20 -220 -90 -356 -121
l-104 -23 -94 -94 c-90 -90 -93 -94 -81 -120 12 -27 13 -27 84 -10 51 12 281
89 373 125 57 22 105 38 107 36 8 -8 -95 -230 -199 -428 -179 -339 -264 -457
-510 -709 -98 -99 -147 -156 -126 -144 19 11 72 42 117 67 67 39 102 69 197
172 190 206 308 361 406 537 l44 77 140 0 c149 0 284 16 415 50 44 11 86 20
94 20 8 0 31 -28 52 -61 91 -148 285 -364 382 -426 52 -33 127 -63 159 -63 7
0 47 39 89 88 41 48 97 102 125 121 28 19 48 36 45 39 -2 3 -49 -8 -105 -23
l-100 -28 -52 24 c-103 47 -235 170 -368 339 l-43 55 49 20 c27 11 119 54 204
97 153 76 156 78 240 170 48 53 72 84 55 73 -171 -112 -578 -287 -605 -259
-42 44 -189 412 -190 475 0 22 16 38 88 90 303 221 643 524 811 726 97 115
120 155 102 177 -8 9 -19 16 -27 16 -20 0 -223 -129 -239 -153 -147 -212 -381
-444 -610 -607 -128 -91 -366 -242 -372 -237 -2 2 17 79 43 172 62 229 83 338
90 486 7 118 -9 355 -25 401 -5 15 -24 5 -114 -58z m102 -1205 c19 -50 62
-146 97 -214 l62 -124 -56 -8 c-112 -16 -407 -2 -429 21 -2 2 30 74 72 160 41
86 75 160 75 165 0 8 128 91 140 91 3 0 20 -41 39 -91z"/>
</g>
</svg>
